<?xml version="1.0" standalone="no"?><!DOCTYPE svg PUBLIC "-//W3C//DTD SVG 1.1//EN" "http://www.w3.org/Graphics/SVG/1.1/DTD/svg11.dtd"><svg t="1629291280751" class="icon" viewBox="0 0 1024 1024" version="1.1" xmlns="http://www.w3.org/2000/svg" p-id="1244" xmlns:xlink="http://www.w3.org/1999/xlink" width="200" height="200"><defs><style type="text/css"></style></defs><path d="M781.351404 283.896762a149.9985 80.799192 1.124 1 0 3.169954-161.56729 149.9985 80.799192 1.124 1 0-3.169954 161.56729Z" fill="#4CAF50" p-id="1245"></path><path d="M653.3 291.6l-48.9-1.5c6.7-81.6 36.2-156.1 87.5-221.2 14.3-18.2 30.4-35.7 47.9-52.1l36.6 25.6c-15.9 14.9-30.5 30.8-43.5 47.2-46.7 59.2-73.5 127.2-79.6 202z" fill="#795548" p-id="1246"></path><path d="M295.4 844.1m-157.9 0a157.9 157.9 0 1 0 315.8 0 157.9 157.9 0 1 0-315.8 0Z" fill="#702AD6" p-id="1247"></path><path d="M295.4 1024c-99.2 0-179.9-80.7-179.9-179.9s80.7-179.9 179.9-179.9 179.9 80.7 179.9 179.9S394.6 1024 295.4 1024z m0-315.8c-74.9 0-135.8 60.9-135.8 135.8s60.9 135.8 135.8 135.8S431.2 919 431.2 844.1s-60.9-135.9-135.8-135.9z" fill="#3700A0" p-id="1248"></path><path d="M530.4 770.7m-172.6 0a172.6 172.6 0 1 0 345.2 0 172.6 172.6 0 1 0-345.2 0Z" fill="#702AD6" p-id="1249"></path><path d="M530.4 965.3c-107.3 0-194.6-87.3-194.6-194.6s87.3-194.6 194.6-194.6S725 663.4 725 770.7s-87.3 194.6-194.6 194.6z m0-345.2c-83 0-150.5 67.5-150.5 150.5s67.5 150.5 150.5 150.5 150.5-67.5 150.5-150.5-67.5-150.5-150.5-150.5z" fill="#3700A0" p-id="1250"></path><path d="M750.7 388.8m-172.6 0a172.6 172.6 0 1 0 345.2 0 172.6 172.6 0 1 0-345.2 0Z" fill="#702AD6" p-id="1251"></path><path d="M750.7 583.4c-107.3 0-194.6-87.3-194.6-194.6s87.3-194.6 194.6-194.6 194.6 87.3 194.6 194.6S858 583.4 750.7 583.4z m0-345.1c-83 0-150.5 67.5-150.5 150.5s67.5 150.5 150.5 150.5 150.5-67.5 150.5-150.5-67.5-150.5-150.5-150.5z" fill="#3700A0" p-id="1252"></path><path d="M743.3 623.8m-172.6 0a172.6 172.6 0 1 0 345.2 0 172.6 172.6 0 1 0-345.2 0Z" fill="#8134F2" p-id="1253"></path><path d="M743.3 818.4c-107.3 0-194.6-87.3-194.6-194.6S636 429.2 743.3 429.2s194.6 87.3 194.6 194.6-87.3 194.6-194.6 194.6z m0-345.1c-83 0-150.5 67.5-150.5 150.5s67.5 150.5 150.5 150.5 150.5-67.5 150.5-150.5-67.5-150.5-150.5-150.5z" fill="#3700A0" p-id="1254"></path><path d="M464.3 278.7m-172.6 0a172.6 172.6 0 1 0 345.2 0 172.6 172.6 0 1 0-345.2 0Z" fill="#702AD6" p-id="1255"></path><path d="M464.3 473.3c-107.3 0-194.6-87.3-194.6-194.6S357 84.1 464.3 84.1s194.6 87.3 194.6 194.6-87.3 194.6-194.6 194.6z m0-345.2c-83 0-150.5 67.5-150.5 150.5s67.5 150.5 150.5 150.5 150.5-67.5 150.5-150.5-67.5-150.5-150.5-150.5z" fill="#3700A0" p-id="1256"></path><path d="M280.7 631.1m-165.2 0a165.2 165.2 0 1 0 330.4 0 165.2 165.2 0 1 0-330.4 0Z" fill="#8134F2" p-id="1257"></path><path d="M280.7 818.4c-103.2 0-187.3-84-187.3-187.3s84-187.3 187.3-187.3S468 527.8 468 631.1s-84.1 187.3-187.3 187.3z m0-330.5c-79 0-143.2 64.2-143.2 143.2s64.2 143.2 143.2 143.2 143.2-64.2 143.2-143.2-64.3-143.2-143.2-143.2z" fill="#3700A0" p-id="1258"></path><path d="M273.3 396.2m-172.6 0a172.6 172.6 0 1 0 345.2 0 172.6 172.6 0 1 0-345.2 0Z" fill="#8134F2" p-id="1259"></path><path d="M273.3 590.7c-107.3 0-194.6-87.3-194.6-194.6S166 201.6 273.3 201.6s194.6 87.3 194.6 194.6-87.3 194.5-194.6 194.5z m0-345.1c-83 0-150.5 67.5-150.5 150.5s67.5 150.5 150.5 150.5 150.5-67.5 150.5-150.5-67.4-150.5-150.5-150.5z" fill="#3700A0" p-id="1260"></path><path d="M508.3 484.3m-194.6 0a194.6 194.6 0 1 0 389.2 0 194.6 194.6 0 1 0-389.2 0Z" fill="#926BFF" p-id="1261"></path><path d="M508.3 700.9c-119.4 0-216.6-97.2-216.6-216.6s97.2-216.6 216.6-216.6S725 364.8 725 484.3s-97.2 216.6-216.7 216.6z m0-389.2c-95.2 0-172.6 77.4-172.6 172.6s77.4 172.6 172.6 172.6 172.6-77.4 172.6-172.6-77.4-172.6-172.6-172.6z" fill="#3700A0" p-id="1262"></path><path d="M629.6 153.4c-39.8-51.7-113.7-95.7-203.8-115.2-39.7-8.6-78.5-11.4-114.5-9.4 42.6 2.2 88.7 12 134.8 30 82.8 32.4 147.7 84.3 182 139.3 3.8-1.8 7.6-3.7 11.3-5.7-2.1-13.4-5.5-26.4-9.8-39z" fill="#2E7D32" p-id="1263"></path><path d="M446.1 58.9c-46.1-18-92.2-27.8-134.8-30 35.9-2 74.8 0.8 114.5 9.4 90.1 19.4 164 63.5 203.8 115.2C599 66 516.9 2.4 418.9 0.1c-41.2-1-80.1 9-114 27.3C322 134.2 413.3 217.1 525.4 219.7c36.7 0.9 71.6-7 102.7-21.6-34.4-54.9-99.2-106.8-182-139.2z" fill="#4CAF50" p-id="1264"></path></svg>